# AST/ASF file generated using VICON BodyLanguage
# -----------------------------------------------
:version 1.10
:name VICON
:units
  mass 1.0
  length 0.45
  angle deg
:documentation
   .ast/.asf automatically generated from VICON data using
   VICON BodyBuilder and BodyLanguage model FoxedUp or BRILLIANT.MOD
:root
   order TX TY TZ RX RY RZ
   axis XYZ
   position 0 0 0  
   orientation 0 0 0 
:bonedata
  begin
     id 1 
     name lhipjoint
     direction 0.677091 -0.635792 0.370561 
     length 2.74323 
     axis 0 0 0  XYZ
  end
  begin
     id 2 
     name lfemur
     direction 0.34202 -0.939693 0  
     length 7.44995  
     axis 0 0 20  XYZ
    dof rx ry rz
    limits (-160.0 20.0)
           (-70.0 70.0)
           (-60.0 70.0)
  end
  begin
     id 3 
     name ltibia
     direction 0.34202 -0.939693 0   
     length 7.34467   
     axis 0 0 20   XYZ
    dof rx
    limits (-10.0 170.0)
  end
  begin
     id 4 
     name lfoot
     direction 0.101953 -0.280114 0.954537   
     length 1.72105   
     axis -90 7.62852e-016 20   XYZ
    dof rx rz
    limits (-45.0 90.0)
           (-70.0 20.0)
  end
  begin
     id 5 
     name ltoes
     direction 1.53537e-011 -4.21915e-011 1   
     length 0.865872   
     axis -90 7.62852e-016 20   XYZ
    dof rx
    limits (-90.0 20.0)
  end
  begin
     id 6 
     name rhipjoint
     direction -0.695735 -0.620586 0.361699   
     length 2.81045  
     axis 0 0 0  XYZ 
  end
  begin
     id 7 
     name rfemur
     direction -0.34202 -0.939693 0   
     length 7.29387   
     axis 0 0 -20   XYZ
    dof rx ry rz
    limits (-160.0 20.0)
           (-70.0 70.0)
           (-70.0 60.0)
  end
  begin
     id 8 
     name rtibia
     direction -0.34202 -0.939693 0   
     length 7.44935   
     axis 0 0 -20   XYZ
    dof rx
    limits (-10.0 170.0)
 end
 begin
     id 9 
     name rfoot
     direction -0.104163 -0.286184 0.952496   
     length 1.77731  
     axis -90 -7.62852e-016 -20   XYZ
    dof rx rz
    limits (-45.0 90.0)
           (-20.0 70.0)
  end
  begin
     id 10 
     name rtoes
     direction -1.5355e-011 -4.21888e-011 1   
     length 0.892424   
     axis -90 -7.62852e-016 -20   XYZ
    dof rx
    limits (-90.0 20.0)
  end
  begin
     id 11 
     name lowerback
     direction 0.0100202 0.997226 -0.0737589   
     length 2.16892   
     axis 0 0 0   XYZ
    dof rx ry rz
    limits (-20.0 45.0)
           (-30.0 30.0)
           (-30.0 30.0)
  end
  begin
     id 12 
     name upperback
     direction 0.00432398 0.999988 -0.00215019   
     length 2.17326   
     axis 0 0 0   XYZ
    dof rx ry rz
    limits (-20.0 45.0)
           (-30.0 30.0)
           (-30.0 30.0)
  end
  begin
     id 13 
     name thorax
     direction -0.00195047 0.999485 0.0320434   
     length 2.18139   
     axis 0 0 0   XYZ
    dof rx ry rz
    limits (-20.0 45.0)
           (-30.0 30.0)
           (-30.0 30.0)
  end
  begin
     id 14 
     name lowerneck
     direction 0.00782762 0.986241 0.165128   
     length 1.88415   
     axis 0 0 0   XYZ
    dof rx ry rz
    limits (-20.0 45.0)
           (-30.0 30.0)
           (-30.0 30.0)
  end
  begin
     id 15 
     name upperneck
     direction 0.00988667 0.981098 -0.193258   
     length 1.9242   
     axis 0 0 0   XYZ
    dof rx ry rz
    limits (-20.0 45.0)
           (-30.0 30.0)
           (-30.0 30.0)
  end
  begin
     id 16
     name head
     direction 0.00252199 0.996513 -0.0833958  
     length 1.93887  
     axis 0 0 0   XYZ
    dof rx ry rz
    limits (-20.0 45.0)
           (-30.0 30.0)
           (-30.0 30.0)
  end
  begin
     id 17 
     name lclavicle
     direction 0.929492 0.368193 -0.0218667  
     length 3.5955  
     axis 0 0 0   XYZ
    dof ry rz
    limits (-20.0 10.0)
           (0.0 20.0)
  end
  begin
     id 18 
     name lhumerus
     direction 1 -4.48972e-011 1.41911e-027   
     length 5.2795   
     axis 180 -30 -90   XYZ
    dof rx ry rz
    limits (-60.0 90.0)
           (-90.0 90.0)
           (-90.0 90.0)
  end
  begin
     id 19
     name lradius
     direction 1 -4.48963e-011 7.05772e-027   
     length 3.53504   
     axis 180 -30 -90   XYZ
    dof rx
    limits (-10.0 170.0)
  end
  begin
     id 20
     name lwrist
     direction 1 -4.48957e-011 9.54866e-027   
     length 1.76752   
     axis -7.69462e-015 90 90   XYZ
    dof ry
    limits (-180.0 0.0)
 end
  begin
     id 21 
     name lhand
     direction 1 -4.48979e-011 1.90973e-026   
     length 0.667948   
     axis -1.21857e-014 90 90   XYZ
    dof rx rz
    limits (-90.0 90.0)
           (-45.0 45.0)
  end
  begin
     id 22 
     name lfingers
     direction 1 -4.48987e-011 3.81946e-026   
     length 0.538517   
     axis -2.43714e-014 90 90   XYZ
    dof rx
    limits (0.0 90.0)
  end
  begin
     id 23
     name lthumb
     direction 0.707107 -6.34962e-011 0.707107   
     length 0.773206   
     axis -90 45 2.85299e-015   XYZ
    dof rx rz
    limits (-45.0 45.0)
           (-45.0 45.0)
  end
  begin
     id 24 
     name rclavicle
     direction -0.898763 0.414256 -0.143584   
     length 3.5176  
     axis 0 0 0   XYZ 
    dof ry rz
    limits (-10.0 20.0)
           (-20.0 0.0)
  end
  begin
     id 25 
     name rhumerus
     direction -1 -4.48971e-011 1.129e-027  
     length 5.25035   
     axis 180 30 90   XYZ
    dof rx ry rz
    limits (-90.0 60.0)
           (-90.0 90.0)
           (-90.0 90.0)
  end
  begin
     id 26 
     name rradius
     direction -1 -4.48955e-011 6.34664e-027   
     length 3.58884   
     axis 180 30 90   XYZ
    dof rx
    limits (-10.0 170.0)
  end
  begin
     id 27 
     name rwrist
     direction -1 -4.48966e-011 9.54866e-027   
     length 1.79442   
     axis -7.69462e-015 -90 -90   XYZ
    dof ry
    limits (-180.0 0.0)
  end
  begin
     id 28
     name rhand
     direction -1 -4.48973e-011 1.90973e-026   
     length 0.779235   
     axis -1.21857e-014 -90 -90   XYZ
    dof rx rz
    limits (-90.0 90.0)
           (-45.0 45.0)
  end
  begin
     id 29
     name rfingers
     direction -1 -4.48984e-011 3.81946e-026   
     length 0.62824   
     axis -2.43714e-014 -90 -90   XYZ
    dof rx
    limits (0.0 90.0)
  end
  begin
     id 30
     name rthumb
     direction -0.707107 -6.34968e-011 0.707107   
     length 0.90203   
     axis -90 -45 -2.85299e-015   XYZ
    dof rx rz
    limits (-45.0 45.0)
           (-45.0 45.0)
  end
:hierarchy
  begin
    root lhipjoint rhipjoint lowerback
    lhipjoint lfemur
    lfemur ltibia
    ltibia lfoot
    lfoot ltoes
    rhipjoint rfemur
    rfemur rtibia
    rtibia rfoot
    rfoot rtoes
    lowerback upperback
    upperback thorax
    thorax lowerneck lclavicle rclavicle
    lowerneck upperneck
    upperneck head
    lclavicle lhumerus
    lhumerus lradius
    lradius lwrist
    lwrist lhand lthumb
    lhand lfingers
    rclavicle rhumerus
    rhumerus rradius
    rradius rwrist
    rwrist rhand rthumb
    rhand rfingers
  end

#!OML:ASF I:\Random Stuff\random\construction\7_22_03\Session 2\subj1.ASF
:FULLY-SPECIFIED
:DEGREES
18
root -5.94617 17.6854 0.939764 0.675069 56.4027 -4.5365
lowerback 2.25999 0.764642 0.562708
upperback -2.80761 1.06368 0.163829
thorax -4.15099 0.519752 -0.208791
lowerneck -23.585 -0.955032 -1.29028
upperneck 32.988 -1.92853 3.77587
head 15.6797 -0.260942 1.48962
rclavicle -3.7394e-014 -1.98785e-016
rhumerus -41.4693 -10.5268 -74.2445
rradius 26.7215
rwrist 5.7879
rhand -19.3401 19.1933
rfingers 7.12502
rthumb 6.97683 -10.6717
lclavicle -3.7394e-014 -1.98785e-016
lhumerus -37.9371 -2.62352 86.7338
lradius 39.7484
lwrist 34.2937
lhand -18.7837 61.2527
lfingers 7.12502
lthumb -172.486 88.9008
rfemur 1.42205 14.0916 17.2242
rtibia -8.74653e-015
rfoot -1.75342 -16.473
rtoes -21.2717
lfemur -8.13806 -12.7256 -13.3856
ltibia 20.382
lfoot -15.2071 13.4016
ltoes -33.4993
19
root -5.95409 17.6879 0.943877 0.906925 56.4851 -4.36662
lowerback 2.17867 0.761002 0.528319
upperback -2.83373 1.05597 0.12816
thorax -4.13194 0.516604 -0.224831
lowerneck -23.6318 -0.947373 -1.27668
upperneck 32.9915 -1.9225 3.77379
head 15.6917 -0.256618 1.48786
rclavicle -4.83676e-014 -2.98177e-015
rhumerus -41.543 -10.5785 -74.2357
rradius 26.7894
rwrist 5.74987
rhand -19.2171 19.2889
rfingers 7.12502
rthumb 7.09557 -10.5722
lclavicle -4.83676e-014 -2.98177e-015
lhumerus -37.9679 -2.57053 86.6785
lradius 39.9082
lwrist 34.2308
lhand -18.7246 61.2682
lfingers 7.12502
lthumb -172.429 88.8874
rfemur 1.32948 14.0039 17.1162
rtibia -3.18055e-015
rfoot -1.79572 -16.4774
rtoes -21.1001
lfemur -8.20724 -13.2026 -13.4482
ltibia 20.2871
lfoot -15.1972 13.7453
ltoes -33.1627
20
root -5.96162 17.6885 0.9463 1.08774 56.5677 -4.23724
lowerback 2.10767 0.734647 0.496165
upperback -2.86547 1.01992 0.137034
thorax -4.12557 0.500014 -0.194867
lowerneck -23.6388 -0.937863 -1.30307
upperneck 33.0211 -1.89565 3.77056
head 15.7067 -0.248709 1.49728
rclavicle -1.33597e-014 5.1684e-015
rhumerus -41.5829 -10.5187 -74.1886
rradius 26.859
rwrist 5.64926
rhand -19.1297 19.6211
rfingers 7.12502
rthumb 7.17998 -10.2371
lclavicle -1.33597e-014 5.1684e-015
lhumerus -38.0453 -2.42104 86.6251
lradius 39.9948
lwrist 34.1445
lhand -18.5773 61.0354
lfingers 7.12502
lthumb -172.287 89.1253
rfemur 1.25731 13.9169 17.0372
rtibia -1.51076e-014
rfoot -1.79107 -16.4893
rtoes -21.1447
lfemur -8.25264 -13.8158 -13.5027
ltibia 20.1958
lfoot -15.1826 14.2379
ltoes -32.9205
21
root -5.96829 17.6878 0.948362 1.19494 56.6383 -4.19816
lowerback 2.05635 0.709762 0.506645
upperback -2.90876 0.988756 0.168198
thorax -4.142 0.484879 -0.166528
lowerneck -23.6513 -0.933222 -1.29444
upperneck 33.0703 -1.86461 3.6966
head 15.7306 -0.244945 1.47155
rclavicle -1.16249e-013 -7.15625e-015
rhumerus -41.593 -10.3717 -74.1951
rradius 26.9717
rwrist 5.42239
rhand -19.1113 19.7687
rfingers 7.12502
rthumb 7.19774 -10.0889
lclavicle -1.16249e-013 -7.15625e-015
lhumerus -38.0896 -2.27948 86.6027
lradius 39.8917
lwrist 34.1747
lhand -18.5966 60.8377
lfingers 7.12502
lthumb -172.306 89.3222
rfemur 1.17031 13.8432 17.0145
rtibia -6.36111e-015
rfoot -1.71121 -16.5096
rtoes -21.643
lfemur -8.30262 -14.4661 -13.5114
ltibia 20.1282
lfoot -15.1421 14.844
ltoes -32.9279
22
root -5.97586 17.6877 0.950793 1.21581 56.6756 -4.26248
lowerback 2.03743 0.725212 0.59131
upperback -2.94623 1.01411 0.18589
thorax -4.16895 0.495235 -0.197192
lowerneck -23.7386 -0.927687 -1.22532
upperneck 33.142 -1.84206 3.57825
head 15.7818 -0.24282 1.4153
rclavicle 3.18599e-015 -4.57205e-015
rhumerus -41.5773 -10.3443 -74.2354
rradius 27.1196
rwrist 5.19222
rhand -19.0815 19.7627
rfingers 7.12502
rthumb 7.2265 -10.0939
lclavicle 3.18599e-015 -4.57205e-015
lhumerus -38.0621 -2.22822 86.5969
lradius 39.6872
lwrist 34.2243
lhand -18.937 60.8499
lfingers 7.12502
lthumb -172.634 89.2983
rfemur 1.06726 13.8044 17.0574
rtibia -1.59028e-014
rfoot -1.6203 -16.5041
rtoes -22.3038
lfemur -8.34885 -15.0716 -13.4523
ltibia 20.0788
lfoot -15.144 15.4417
ltoes -32.8582
23
root -5.98461 17.6888 0.95149 1.24918 56.6897 -4.30463
lowerback 2.01248 0.731057 0.636303
upperback -2.96131 1.02579 0.234597
thorax -4.17053 0.500591 -0.172634
lowerneck -23.9664 -0.863998 -1.05044
upperneck 33.3032 -1.72724 3.32079
head 15.9025 -0.207955 1.30169
rclavicle 1.10225e-014 -4.96962e-015
rhumerus -41.4961 -10.2966 -74.262
rradius 27.2903
rwrist 5.06329
rhand -19.0239 19.8714
rfingers 7.12502
rthumb 7.28213 -9.98326
lclavicle 1.10225e-014 -4.96962e-015
lhumerus -38.0564 -2.0728 86.5927
lradius 39.4932
lwrist 34.1246
lhand -19.2145 60.8932
lfingers 7.12502
lthumb -172.902 89.2458
rfemur 0.964112 13.7889 17.0847
rtibia -6.36111e-015
rfoot -1.57123 -16.4999
rtoes -22.6576
lfemur -8.3943 -15.6346 -13.4035
ltibia 20.0441
lfoot -15.2385 15.9718
ltoes -32.6653
24
root -5.99355 17.6914 0.94992 1.39714 56.717 -4.25574
lowerback 1.93865 0.710893 0.59894
upperback -2.98328 0.999753 0.298674
thorax -4.15341 0.490186 -0.0833957
lowerneck -23.876 -0.861214 -1.04312
upperneck 33.2259 -1.68995 3.22686
head 15.8411 -0.207696 1.26524
rclavicle -2.50655e-015 -5.36719e-015
rhumerus -41.3642 -10.1975 -74.2734
rradius 27.4797
rwrist 5.01835
rhand -18.9345 20.206
rfingers 7.12502
rthumb 7.36836 -9.64571
lclavicle -2.50655e-015 -5.36719e-015
lhumerus -38.0899 -1.94304 86.6324
lradius 39.2777
lwrist 34.1995
lhand -19.3005 60.7948
lfingers 7.12502
lthumb -172.985 89.3415
rfemur 0.820537 13.7557 17.0321
rtibia 7.95139e-016
rfoot -1.58054 -16.514
rtoes -22.31
lfemur -8.50374 -16.2837 -13.3993
ltibia 20.018
lfoot -15.347 16.5727
ltoes -32.5241
